<svg xmlns="http://www.w3.org/2000/svg" width="350" height="80"><path d="M240 79.5v0z" fill="none"/><path opacity=".1" fill="#fff" enable-background="new" d="M64 48c3.6-4.9 9.4-8 16-8 3.4 0 6.6.9 9.4 2.4 5.5-10.4 13.3-19.4 22.6-26.4-7.3-9.7-18.9-16-32-16-18.7 0-34.3 12.8-38.8 30.1-.4-.1-.8-.1-1.2-.1-9.3 0-17.1 6.4-19.3 15 5.7-3.2 12.3-5 19.3-5 9 0 17.3 3 24 8z"/><path opacity=".1" fill="#fff" enable-background="new" d="M227.5 37.1c4.5-4.4 10.7-7.1 17.5-7.1 6.4 0 12.2 2.4 16.6 6.3 9.3-7.1 20.8-11.3 33.4-11.3 12.9 0 24.7 4.4 34 11.8-3.7-15.4-17.5-26.8-34-26.8-11.8 0-22.3 5.9-28.6 14.9-4.7-3.1-10.4-4.9-16.4-4.9-4.9 0-9.6 1.2-13.7 3.3-6.3-13.8-20.2-23.3-36.3-23.3-5.9 0-11.4 1.3-16.4 3.5 18.3 5.7 33.8 17.8 43.9 33.6z"/><path opacity=".3" fill="#fff" enable-background="new" d="M329 36.8c-9.4-7.4-21.2-11.8-34-11.8-12.6 0-24.1 4.2-33.4 11.3-4.4-3.9-10.2-6.3-16.6-6.3-6.8 0-13 2.7-17.5 7.1-10.1-15.9-25.6-27.9-44-33.6-7.4-2.3-15.3-3.5-23.5-3.5-18 0-34.6 6-48 16-9.3 7-17.1 16-22.6 26.4-2.8-1.5-6-2.4-9.4-2.4-6.5 0-12.3 3.2-16 8-6.7-5-15-8-24-8-7 0-13.6 1.8-19.3 5-12.4 6.8-20.7 19.9-20.7 35h240v0h110c0-17.5-8.2-33.1-21-43.2z"/></svg>