<svg xmlns="http://www.w3.org/2000/svg" width="350" height="80"><path d="M239.987 79.497l.013.503.013-.499-.026-.004z" fill="none"/><path opacity=".2" fill="#fff" d="M64.017 48.013c3.649-4.857 9.44-8.013 15.983-8.013 3.402 0 6.602.855 9.407 2.353 5.533-10.353 13.269-19.35 22.593-26.354-7.298-9.714-18.914-15.999-32-15.999-18.661 0-34.336 12.779-38.754 30.063-.415-.026-.826-.063-1.246-.063-9.311 0-17.112 6.371-19.341 14.986 5.733-3.174 12.324-4.986 19.341-4.986 9.013 0 17.329 2.983 24.017 8.013z"/><path opacity=".2" fill="#fff" d="M227.527 37.127c4.507-4.407 10.671-7.127 17.473-7.127 6.373 0 12.185 2.388 16.6 6.313 9.261-7.091 20.835-11.313 33.4-11.313 12.851 0 24.663 4.42 34.026 11.805-3.69-15.375-17.519-26.805-34.026-26.805-11.834 0-22.288 5.879-28.623 14.869-4.71-3.075-10.332-4.869-16.377-4.869-4.921 0-9.56 1.192-13.658 3.292-6.33-13.745-20.217-23.292-36.342-23.292-5.859 0-11.418 1.27-16.433 3.534 18.348 5.648 33.864 17.725 43.96 33.593z"/><path opacity=".5" fill="#fff" d="M329.026 36.805c-9.363-7.385-21.175-11.805-34.026-11.805-12.565 0-24.139 4.222-33.4 11.313-4.415-3.925-10.227-6.313-16.6-6.313-6.802 0-12.966 2.72-17.473 7.127-10.096-15.868-25.612-27.945-43.96-33.594-7.451-2.293-15.364-3.533-23.567-3.533-18.011 0-34.629 5.955-48 15.999-9.324 7.004-17.06 16.001-22.593 26.354-2.805-1.498-6.005-2.353-9.407-2.353-6.543 0-12.334 3.156-15.983 8.013-6.688-5.03-15.004-8.013-24.017-8.013-7.017 0-13.608 1.812-19.341 4.986-12.316 6.818-20.659 19.939-20.659 35.014h240l-.013-.503.025.005-.012.498h110c0-17.525-8.206-33.123-20.974-43.195z"/></svg>