<svg xmlns="http://www.w3.org/2000/svg" viewBox="0 0 385 385" enable-background="new 0 0 385 385"><path fill="#fff" d="M192.5 0c-106.3 0-192.5 86.2-192.5 192.5s86.2 192.5 192.5 192.5 192.5-86.2 192.5-192.5-86.2-192.5-192.5-192.5zm0 354.5c-89.5 0-162-72.5-162-162s72.5-162 162-162 162 72.5 162 162-72.5 162-162 162z"/><g fill="#fff"><path d="M312 197.2c2.6-2.7 2.6-6.8.1-9.4l-94.5-94.5c-1.3-1.3-3-1.9-4.6-1.9-1.7 0-3.4.6-4.6 1.9l-.1.1c-1.2 1.2-1.9 2.9-1.9 4.6v26.1c0 1.7.7 3.4 1.9 4.6l63.6 63.6-63.6 63.6c-1.2 1.2-1.9 2.9-1.9 4.6v26.2c0 1.7.7 3.4 1.9 4.6l.1.1c1.2 1.2 2.9 1.9 4.6 1.9 1.7 0 3.4-.7 4.6-1.9l94.4-94.2z"/><path d="M73 197.2c-2.6-2.7-2.6-6.8-.1-9.4l94.5-94.5c1.3-1.3 3-1.9 4.6-1.9 1.7 0 3.4.6 4.6 1.9l.1.1c1.2 1.2 1.9 2.9 1.9 4.6v26.1c0 1.7-.7 3.4-1.9 4.6l-63.6 63.6 63.6 63.6c1.2 1.2 1.9 2.9 1.9 4.6v26.2c0 1.7-.7 3.4-1.9 4.6l-.1.1c-1.2 1.2-2.9 1.9-4.6 1.9-1.7 0-3.4-.7-4.6-1.9l-94.4-94.2z"/></g></svg>