<?xml version="1.0" encoding="utf-8"?>
<!-- Generator: Adobe Illustrator 17.1.0, SVG Export Plug-In . SVG Version: 6.00 Build 0)  -->
<!DOCTYPE svg PUBLIC "-//W3C//DTD SVG 1.1//EN" "http://www.w3.org/Graphics/SVG/1.1/DTD/svg11.dtd">
<svg version="1.1" id="Layer_1" xmlns="http://www.w3.org/2000/svg" xmlns:xlink="http://www.w3.org/1999/xlink" x="0px" y="0px"
	 width="160px" height="160px" viewBox="0 0 160 160" enable-background="new 0 0 160 160" xml:space="preserve">
<g>
	<circle fill="#2B2B2B" cx="80" cy="80" r="80"/>
	<g>
		<path fill="#F2F2F2" d="M86.799,65.144c0,1.757,0,3.516,0,4.851v12.333c0,2.668,1.674,3.448,3.719,1.735L118.547,60.6
			c2.042-1.713,2.042-4.516,0-6.227L90.518,30.909c-2.045-1.713-3.719-0.933-3.719,1.736v12.333c0,1.334,0,3.092,0,4.851H51.9
			v15.315H86.799z"/>
		<path fill="#F2F2F2" d="M41.985,49.829H32.87c-2.667,0-4.851,2.182-4.851,4.851v5.613c0,2.668,2.183,4.851,4.851,4.851h9.115
			V49.829z"/>
		<path fill="#F2F2F2" d="M125.149,96.628h-9.516v15.315h9.516c2.668,0,4.851-2.182,4.851-4.851v-5.613
			C130,98.812,127.817,96.628,125.149,96.628z"/>
		<path fill="#F2F2F2" d="M71.22,96.628c0-1.757,0-3.516,0-4.851V79.447c0-2.669-1.674-3.449-3.722-1.738l-28.026,23.464
			c-2.045,1.711-2.045,4.515,0,6.227l28.026,23.465c2.048,1.71,3.722,0.93,3.722-1.738v-12.334c0-1.334,0-3.091,0-4.851h34.495
			V96.628H71.22z"/>
	</g>
</g>
</svg>
