<?xml version="1.0" encoding="utf-8"?>
<!-- Generator: Adobe Illustrator 17.1.0, SVG Export Plug-In . SVG Version: 6.00 Build 0)  -->
<!DOCTYPE svg PUBLIC "-//W3C//DTD SVG 1.1//EN" "http://www.w3.org/Graphics/SVG/1.1/DTD/svg11.dtd">
<svg version="1.1" id="Layer_1" xmlns="http://www.w3.org/2000/svg" xmlns:xlink="http://www.w3.org/1999/xlink" x="0px" y="0px"
	 width="350px" height="80px" viewBox="0 0 350 80" enable-background="new 0 0 350 80" xml:space="preserve">
<path fill="none" d="M240,79.5V80V79.5L240,79.5z"/>
<path opacity="0.1" fill="#FFFFFF" enable-background="new    " d="M64,48c3.6-4.9,9.4-8,16-8c3.4,0,6.6,0.9,9.4,2.4
	C94.9,32,102.7,23,112,16C104.7,6.3,93.1,0,80,0C61.3,0,45.7,12.8,41.2,30.1C40.8,30,40.4,30,40,30c-9.3,0-17.1,6.4-19.3,15
	c5.7-3.2,12.3-5,19.3-5C49,40,57.3,43,64,48z"/>
<path opacity="0.1" fill="#FFFFFF" enable-background="new    " d="M227.5,37.1C232,32.7,238.2,30,245,30c6.4,0,12.2,2.4,16.6,6.3
	C270.9,29.2,282.4,25,295,25c12.9,0,24.7,4.4,34,11.8C325.3,21.4,311.5,10,295,10c-11.8,0-22.3,5.9-28.6,14.9
	C261.7,21.8,256,20,250,20c-4.9,0-9.6,1.2-13.7,3.3C230,9.5,216.1,0,200,0c-5.9,0-11.4,1.3-16.4,3.5
	C201.9,9.2,217.4,21.3,227.5,37.1L227.5,37.1z"/>
<path opacity="0.2" fill="#FFFFFF" enable-background="new    " d="M329,36.8c-9.4-7.4-21.2-11.8-34-11.8
	c-12.6,0-24.1,4.2-33.4,11.3c-4.4-3.9-10.2-6.3-16.6-6.3c-6.8,0-13,2.7-17.5,7.1c-10.1-15.9-25.6-27.9-44-33.6
	C176.1,1.2,168.2,0,160,0c-18,0-34.6,6-48,16c-9.3,7-17.1,16-22.6,26.4c-2.8-1.5-6-2.4-9.4-2.4c-6.5,0-12.3,3.2-16,8
	c-6.7-5-15-8-24-8c-7,0-13.6,1.8-19.3,5C8.3,51.8,0,64.9,0,80h240v-0.5l0,0V80h110C350,62.5,341.8,46.9,329,36.8z"/>
</svg>
