<?xml version="1.0" encoding="utf-8"?>
<!-- Generator: Adobe Illustrator 17.1.0, SVG Export Plug-In . SVG Version: 6.00 Build 0)  -->
<!DOCTYPE svg PUBLIC "-//W3C//DTD SVG 1.1//EN" "http://www.w3.org/Graphics/SVG/1.1/DTD/svg11.dtd">
<svg version="1.1" id="Layer_1" xmlns="http://www.w3.org/2000/svg" xmlns:xlink="http://www.w3.org/1999/xlink" x="0px" y="0px"
	 width="160px" height="140px" viewBox="0 0 160 140" enable-background="new 0 0 160 140" xml:space="preserve">
<path opacity="0.3" fill="#FFFFFF" d="M150,20h-10h-10h-10h-10h-10V10V0H90H30L0,30v80v10h10h10v10v10h10h10h20h50h10h10h10h10h10
	v-10V30V20H150z M10,110V30h20V10h60v10v10v80H30H20H10z M60,130H40H30v-10h60h10v-10V30h10v100H60z M120,130V30h10v100H120z
	 M150,130h-10V30h10V130z"/>
</svg>
