<?xml version="1.0" encoding="utf-8"?>
<!-- Generator: Adobe Illustrator 17.1.0, SVG Export Plug-In . SVG Version: 6.00 Build 0)  -->
<!DOCTYPE svg PUBLIC "-//W3C//DTD SVG 1.1//EN" "http://www.w3.org/Graphics/SVG/1.1/DTD/svg11.dtd">
<svg version="1.1" id="Layer_1" xmlns="http://www.w3.org/2000/svg" xmlns:xlink="http://www.w3.org/1999/xlink" x="0px" y="0px"
	 width="385px" height="385px" viewBox="0 0 385 385" enable-background="new 0 0 385 385" xml:space="preserve">
<path fill="#292B2F" d="M192.5,0C86.185,0,0,86.186,0,192.5S86.185,385,192.5,385S385,298.815,385,192.5S298.814,0,192.5,0z
	 M192.5,354.474c-89.456,0-161.974-72.518-161.974-161.974c0-89.456,72.518-161.974,161.974-161.974
	c89.456,0,161.974,72.518,161.974,161.974C354.474,281.955,281.956,354.474,192.5,354.474z"/>
<g>
	<path fill="#292B2F" d="M311.985,197.217l0.08-0.08v-0.01c2.521-2.609,2.528-6.73-0.009-9.268c0-0.001-0.001-0.001-0.001-0.001l0,0
		l-94.484-94.478c-1.287-1.294-2.962-1.927-4.631-1.927c-1.686,0-3.361,0.632-4.641,1.927l-0.117,0.105
		c-1.227,1.233-1.925,2.903-1.925,4.639v26.147c0,1.738,0.697,3.402,1.925,4.636l63.588,63.587l-63.588,63.596
		c-1.227,1.228-1.925,2.9-1.925,4.624v26.165c0,1.722,0.697,3.398,1.925,4.623l0.117,0.117c1.221,1.228,2.897,1.927,4.641,1.927
		c1.734,0,3.394-0.699,4.631-1.927L311.985,197.217L311.985,197.217L311.985,197.217z"/>
	<path fill="#292B2F" d="M73.015,197.217l-0.08-0.08v-0.01c-2.52-2.609-2.528-6.73,0.008-9.268c0-0.001,0-0.001,0-0.001h0.001
		l94.483-94.478c1.288-1.294,2.963-1.927,4.632-1.927c1.686,0,3.361,0.632,4.641,1.927l0.116,0.105
		c1.228,1.233,1.925,2.903,1.925,4.639v26.147c0,1.738-0.697,3.402-1.925,4.636l-63.587,63.587l63.587,63.596
		c1.229,1.228,1.926,2.9,1.925,4.624l0,26.165c0,1.722-0.697,3.398-1.925,4.623l-0.116,0.117c-1.221,1.228-2.897,1.927-4.641,1.927
		c-1.734,0-3.395-0.699-4.632-1.927L73.015,197.217L73.015,197.217L73.015,197.217z"/>
</g>
</svg>
