<?xml version="1.0" encoding="utf-8"?>
<!-- Generator: Adobe Illustrator 17.1.0, SVG Export Plug-In . SVG Version: 6.00 Build 0)  -->
<!DOCTYPE svg PUBLIC "-//W3C//DTD SVG 1.1//EN" "http://www.w3.org/Graphics/SVG/1.1/DTD/svg11.dtd">
<svg version="1.1" id="Layer_1" xmlns="http://www.w3.org/2000/svg" xmlns:xlink="http://www.w3.org/1999/xlink" x="0px" y="0px"
	 width="160px" height="160px" viewBox="0 0 160 160" enable-background="new 0 0 160 160" xml:space="preserve">
<g>
	<circle fill="#2B2B2B" cx="80" cy="80" r="80"/>
	<g>
		<path fill="#F2F2F2" d="M120.967,44.103l-5.134-0.945c-0.498-0.092-0.674-0.51-0.392-0.931l2.945-4.366
			c0.283-0.419,0.222-1.056-0.136-1.414l-2.825-2.824c-0.358-0.358-0.995-0.419-1.414-0.137l-4.366,2.946
			c-0.421,0.283-0.839,0.106-0.931-0.392l-0.945-5.135c-0.092-0.498-0.582-0.905-1.087-0.905h-3.996
			c-0.507,0-0.996,0.407-1.088,0.905l-0.946,5.135c-0.091,0.498-0.509,0.674-0.93,0.391l-4.366-2.945
			c-0.419-0.282-1.056-0.221-1.414,0.137l-2.825,2.824c-0.358,0.359-0.419,0.996-0.136,1.414l2.944,4.366
			c0.284,0.421,0.107,0.839-0.389,0.931L88.4,44.103c-0.498,0.092-0.905,0.582-0.905,1.088v3.995c0,0.507,0.407,0.996,0.905,1.088
			l5.136,0.945c0.499,0.092,0.674,0.51,0.392,0.93l-2.947,4.367c-0.283,0.421-0.222,1.056,0.136,1.414l2.825,2.826
			c0.358,0.358,0.995,0.421,1.414,0.137l4.366-2.945c0.421-0.283,0.839-0.107,0.93,0.389l0.946,5.136
			c0.092,0.498,0.581,0.905,1.088,0.905h3.996c0.505,0,0.995-0.407,1.087-0.905l0.945-5.136c0.092-0.497,0.51-0.673,0.931-0.389
			l4.366,2.945c0.419,0.283,1.056,0.221,1.414-0.137l2.825-2.823c0.358-0.361,0.419-0.996,0.136-1.416l-2.945-4.367
			c-0.283-0.419-0.107-0.837,0.389-0.93l5.137-0.945c0.497-0.092,0.905-0.582,0.905-1.088v-3.995
			C121.872,44.684,121.464,44.195,120.967,44.103z M104.724,52.535c-2.946,0-5.335-2.389-5.335-5.335
			c0-2.946,2.389-5.334,5.335-5.334c2.947,0,5.335,2.387,5.335,5.334C110.06,50.147,107.671,52.535,104.724,52.535z"/>
		<path fill="#F2F2F2" d="M97.133,81.292l-10.299-1.898c-0.998-0.183-1.352-1.022-0.784-1.863l5.908-8.758
			c0.567-0.842,0.444-2.118-0.275-2.837l-5.666-5.666c-0.719-0.719-1.994-0.84-2.837-0.272l-8.757,5.908
			c-0.844,0.568-1.682,0.213-1.867-0.785l-1.894-10.3c-0.185-0.998-1.166-1.816-2.181-1.816h-8.015
			c-1.016,0-1.997,0.818-2.181,1.816l-1.896,10.3c-0.184,0.997-1.022,1.352-1.866,0.784l-8.756-5.907
			c-0.842-0.568-2.119-0.447-2.837,0.272l-5.667,5.667c-0.719,0.719-0.841,1.996-0.273,2.837l5.907,8.757
			c0.568,0.841,0.215,1.68-0.784,1.863l-10.299,1.898C30.816,81.475,30,82.456,30,83.472v8.013c0,1.016,0.816,1.997,1.815,2.18
			l10.301,1.897c0.998,0.185,1.35,1.025,0.784,1.865l-5.909,8.76c-0.568,0.842-0.445,2.118,0.273,2.837l5.667,5.666
			c0.718,0.719,1.994,0.841,2.837,0.273l8.756-5.906c0.844-0.569,1.682-0.215,1.866,0.783l1.896,10.297
			c0.185,0.998,1.166,1.816,2.181,1.816h8.015c1.016,0,1.997-0.818,2.181-1.816l1.894-10.299c0.185-0.998,1.023-1.352,1.867-0.782
			l8.757,5.907c0.842,0.568,2.118,0.446,2.837-0.273l5.666-5.665c0.719-0.72,0.841-1.996,0.273-2.838l-5.909-8.76
			c-0.568-0.84-0.215-1.68,0.784-1.865l10.301-1.897c0.998-0.184,1.815-1.164,1.815-2.18v-8.013
			C98.947,82.456,98.131,81.475,97.133,81.292z M64.469,99.966c-6.88,0-12.458-5.579-12.458-12.459
			c0-6.879,5.577-12.456,12.458-12.456c6.88,0,12.458,5.577,12.458,12.456C76.926,94.387,71.349,99.966,64.469,99.966z"/>
	</g>
</g>
</svg>
