<?xml version="1.0" encoding="utf-8"?>
<!-- Generator: Adobe Illustrator 17.1.0, SVG Export Plug-In . SVG Version: 6.00 Build 0)  -->
<!DOCTYPE svg PUBLIC "-//W3C//DTD SVG 1.1//EN" "http://www.w3.org/Graphics/SVG/1.1/DTD/svg11.dtd">
<svg version="1.1" id="Layer_1" xmlns="http://www.w3.org/2000/svg" xmlns:xlink="http://www.w3.org/1999/xlink" x="0px" y="0px"
	 width="160px" height="160px" viewBox="0 0 160 160" enable-background="new 0 0 160 160" xml:space="preserve">
<g>
	<circle fill="#2B2B2B" cx="80" cy="80" r="80"/>
	<path fill="#F2F2F2" d="M118.343,85.51h-10.65h-3.547v3.549c0,13.313-10.831,24.144-24.146,24.144
		c-13.312,0-24.143-10.831-24.143-24.144c0-13.313,10.831-24.143,24.143-24.143c1.004,0,2.01,0.061,3.009,0.188v10.721v8.581
		l6.059-6.077l19.058-19.114l2.5-2.506l-2.501-2.504L89.067,35.118l-6.058-6.068v8.574v9.655C82,47.207,80.997,47.17,80,47.17
		c-23.098,0-41.889,18.791-41.889,41.889c0,23.097,18.791,41.891,41.889,41.891c23.1,0,41.889-18.794,41.889-41.891V85.51H118.343z"
		/>
</g>
</svg>
