<?xml version="1.0" encoding="utf-8"?>
<!-- Generator: Adobe Illustrator 17.1.0, SVG Export Plug-In . SVG Version: 6.00 Build 0)  -->
<!DOCTYPE svg PUBLIC "-//W3C//DTD SVG 1.1//EN" "http://www.w3.org/Graphics/SVG/1.1/DTD/svg11.dtd">
<svg version="1.1" id="Layer_1" xmlns="http://www.w3.org/2000/svg" xmlns:xlink="http://www.w3.org/1999/xlink" x="0px" y="0px"
	 width="160px" height="160px" viewBox="0 0 160 160" enable-background="new 0 0 160 160" xml:space="preserve">
<g>
	<circle fill="#2B2B2B" cx="80" cy="80" r="80"/>
	<path fill="#F2F2F2" d="M130.686,113.894l-25.762-23.756c9.864-16.465,7.356-37.717-6.384-51.457
		c-7.968-7.969-18.562-12.357-29.831-12.357c-11.268,0-21.859,4.388-29.826,12.354c-7.969,7.967-12.356,18.561-12.355,29.829
		c0,11.268,4.389,21.861,12.357,29.829c7.963,7.964,18.551,12.349,29.813,12.349c7.574,0,14.907-1.997,21.365-5.798l23.833,25.802
		c1.493,1.49,3.481,2.312,5.598,2.312c0.001,0,0,0,0.001,0c2.117,0,4.104-0.821,5.596-2.312l5.597-5.595
		c1.49-1.492,2.312-3.479,2.312-5.598C133.001,117.374,132.179,115.385,130.686,113.894z M68.71,42.174
		c7.047,0,13.664,2.736,18.633,7.705c10.27,10.271,10.269,26.983-0.003,37.257c-4.968,4.967-11.584,7.703-18.631,7.703
		c-7.045,0-13.66-2.735-18.626-7.701c-4.969-4.968-7.705-11.585-7.705-18.632c-0.001-7.046,2.734-13.663,7.702-18.63
		C55.048,44.91,61.664,42.174,68.71,42.174z"/>
</g>
</svg>
